<svg width="175" height="320" viewBox="0 0 175 320" fill="none" xmlns="http://www.w3.org/2000/svg">
<path d="M152.461 107.203L54.6267 9.36804C48.6236 3.36778 40.4828 -0.0019995 31.9952 8.90101e-07C23.5075 0.00200128 15.3683 3.37562 9.36804 9.3787C3.36778 15.3818 -0.0019995 23.5226 8.90101e-07 32.0102C0.00200128 40.4979 3.37564 48.6371 9.37872 54.6374L107.213 152.451C108.207 153.442 108.995 154.619 109.533 155.915C110.07 157.21 110.347 158.6 110.347 160.003C110.347 161.406 110.07 162.795 109.533 164.091C108.995 165.387 108.207 166.564 107.213 167.555L9.37872 265.368C3.37564 271.368 0.00200128 279.508 8.90101e-07 287.995C-0.0019995 296.483 3.36778 304.624 9.36804 310.627C15.3683 316.63 23.5075 320.003 31.9952 320.005C40.4828 320.007 48.6236 316.638 54.6267 310.637L152.461 212.803C166.44 198.786 174.289 179.798 174.289 160.003C174.289 140.207 166.44 121.219 152.461 107.203Z" fill="white"/>
</svg>
